# xmcd
#
# Track frame offsets:
#	150
#	22281
#	41171
#	70583
#	99164
#
# Disc length: 2374 seconds
# Revision: 0
# Processed by: cddbd v1.5.2PL0 Copyright (c) Steve Scherf et al.
# Submitted via: dBpowerAMP V12.0
#
DISCID=3b094405
DTITLE=Derek Trucks - Already Live
DYEAR=2008
DGENRE=Blues
TTITLE0=I Know
TTITLE1=Get What You Deserve
TTITLE2=I Done Got Over
TTITLE3=I'll Find My Way
TTITLE4=My Favorite Things
EXTD=
EXTT0=
EXTT1=
EXTT2=
EXTT3=
EXTT4=
PLAYORDER=
